<svg width="768" height="519" viewBox="0 0 768 519" fill="none" xmlns="http://www.w3.org/2000/svg">
<g id="undraw_diet_ghvw 1" clip-path="url(#clip0_2_54)">
<g id="bread">
<path id="Vector" d="M124.638 142.927C124.677 133.551 116.689 125.882 107.313 125.882H20.3098C11.0819 125.882 3.10918 133.424 3.00114 142.651C2.96766 145.274 3.54372 147.868 4.68391 150.23C5.82409 152.592 7.49725 154.657 9.57151 156.262C10.1032 156.658 10.5216 157.187 10.7849 157.795C11.0483 158.404 11.1473 159.071 11.072 159.73C10.9711 160.477 10.9205 161.231 10.9205 161.986V222.165C10.9205 224.38 11.3569 226.574 12.2046 228.62C13.0522 230.667 14.2947 232.526 15.8611 234.093C17.4274 235.659 19.2869 236.902 21.3335 237.749C23.38 238.597 25.5735 239.033 27.7886 239.033H99.2834C103.757 239.033 108.047 237.256 111.211 234.093C114.374 230.929 116.151 226.639 116.151 222.165V161.986C116.151 161.325 116.113 160.666 116.036 160.01C115.968 159.361 116.075 158.705 116.346 158.111C116.616 157.517 117.041 157.006 117.576 156.632C119.752 155.069 121.528 153.011 122.755 150.629C123.983 148.247 124.628 145.607 124.638 142.927Z" fill="#3A375C"/>
<path id="Vector_2" d="M120.87 141.276C120.436 138.012 118.823 135.019 116.336 132.86C113.849 130.702 110.658 129.528 107.365 129.559H20.2838C17.2054 129.532 14.2097 130.555 11.7914 132.46C9.37311 134.365 7.67688 137.038 6.98288 140.037C6.38865 142.794 6.6848 145.668 7.82863 148.245C8.97245 150.822 10.9049 152.97 13.3476 154.379C14.0528 154.782 14.6039 155.409 14.9142 156.159C15.2246 156.91 15.2765 157.743 15.0619 158.526C14.7529 159.654 14.5969 160.819 14.598 161.988V222.162C14.5984 225.238 15.6726 228.216 17.6352 230.584C19.5978 232.951 22.3256 234.559 25.3474 235.13C26.1534 235.28 26.9715 235.356 27.7914 235.356H99.2862C100.493 235.358 101.695 235.192 102.856 234.864C105.624 234.085 108.061 232.423 109.797 230.131C111.534 227.839 112.473 225.043 112.474 222.168V161.983C112.474 160.888 112.337 159.797 112.067 158.735C111.993 158.441 111.955 158.139 111.954 157.836C111.954 157.171 112.135 156.518 112.478 155.948C112.821 155.378 113.312 154.912 113.9 154.6L113.905 154.594C116.275 153.336 118.208 151.391 119.451 149.014C120.694 146.637 121.189 143.939 120.87 141.276V141.276Z" fill="#C0C7D6"/>
<path id="Vector_3" opacity="0.2" d="M112.474 167.748V162.09H102.856V129.559H97.1984V162.09H66.9305V129.559H61.2729V162.09H31.0049V129.559H25.3473V162.09H14.5979V167.748H25.3473V184.721H14.5979V190.378H25.3473V207.351H14.5979V213.009H25.3473V235.13C26.1533 235.28 26.9714 235.356 27.7914 235.356H31.0049V213.008H61.2728V235.356H66.9304V213.008H97.1984V235.356H99.2861C100.493 235.358 101.695 235.192 102.856 234.864V213.008H112.474V207.351H102.856V190.378H112.474V184.721H102.856V167.748H112.474ZM31.0049 167.748H61.2729V184.721H31.0049V167.748ZM31.0049 207.351V190.378H61.2729V207.351H31.0049ZM97.1985 207.351H66.9305V190.378H97.1985V207.351ZM97.1985 184.721H66.9305V167.748H97.1985V184.721Z" fill="black"/>
</g>
<g id="wathermelon">
<path id="Vector_4" d="M124.241 0C124.241 7.93478 122.678 15.7919 119.642 23.1226C116.605 30.4534 112.155 37.1143 106.544 42.7251C100.933 48.3358 94.2723 52.7865 86.9415 55.823C79.6107 58.8595 71.7536 60.4224 63.8188 60.4224C55.8841 60.4224 48.027 58.8595 40.6962 55.823C33.3654 52.7865 26.7045 48.3358 21.0938 42.7251C15.483 37.1143 11.0324 30.4534 7.99586 23.1226C4.95936 15.7919 3.39648 7.93478 3.39648 0H124.241Z" fill="#C0C7D6"/>
<path id="Vector_5" d="M25.5634 10.7258C25.5634 12.3055 25.0031 13.5861 24.312 13.5861C23.6209 13.5861 23.0607 12.3055 23.0607 10.7258C23.1366 9.65694 23.5785 8.64684 24.312 7.8656C25.0455 8.64684 25.4874 9.65694 25.5634 10.7258V10.7258Z" fill="#3A375C"/>
<path id="Vector_6" d="M88.8459 20.7367C88.8459 22.3164 88.2856 23.5969 87.5945 23.5969C86.9034 23.5969 86.3432 22.3164 86.3432 20.7367C86.4192 19.6678 86.8611 18.6577 87.5945 17.8765C88.328 18.6577 88.77 19.6678 88.8459 20.7367Z" fill="#3A375C"/>
<path id="Vector_7" d="M42.3672 15.0162C42.3672 16.5959 41.807 17.8765 41.1159 17.8765C40.4248 17.8765 39.8645 16.5959 39.8645 15.0162C39.9405 13.9473 40.3824 12.9372 41.1159 12.156C41.8494 12.9372 42.2913 13.9473 42.3672 15.0162Z" fill="#3A375C"/>
<path id="Vector_8" d="M67.3942 37.5405C67.3942 39.1202 66.8339 40.4008 66.1428 40.4008C65.4517 40.4008 64.8915 39.1202 64.8915 37.5405C64.9674 36.4716 65.4093 35.4615 66.1428 34.6803C66.8763 35.4615 67.3182 36.4716 67.3942 37.5405V37.5405Z" fill="#3A375C"/>
<path id="Vector_9" d="M40.5795 34.6803C40.5795 36.26 40.0192 37.5405 39.3281 37.5405C38.637 37.5405 38.0768 36.26 38.0768 34.6803C38.1527 33.6114 38.5947 32.6013 39.3281 31.8201C40.0616 32.6013 40.5035 33.6114 40.5795 34.6803V34.6803Z" fill="#3A375C"/>
<path id="Vector_10" d="M103.147 7.8656C103.147 9.44527 102.587 10.7258 101.896 10.7258C101.205 10.7258 100.644 9.44527 100.644 7.8656C100.72 6.7967 101.162 5.78661 101.896 5.00537C102.629 5.78661 103.071 6.7967 103.147 7.8656Z" fill="#3A375C"/>
<path id="Vector_11" d="M80.2652 43.261C80.2652 44.8406 79.705 46.1212 79.0139 46.1212C78.3228 46.1212 77.7625 44.8406 77.7625 43.261C77.8385 42.1921 78.2804 41.182 79.0139 40.4008C79.7473 41.182 80.1892 42.1921 80.2652 43.261V43.261Z" fill="#3A375C"/>
<path id="Vector_12" d="M63.8189 63.8189C46.8989 63.7998 30.6775 57.0698 18.7133 45.1056C6.74906 33.1414 0.0191518 16.9199 0 0H6.793C6.793 7.48874 8.26802 14.9042 11.1338 21.8228C13.9997 28.7415 18.2001 35.028 23.4955 40.3234C28.7908 45.6187 35.0773 49.8192 41.996 52.685C48.9147 55.5508 56.3301 57.0258 63.8189 57.0258C71.3076 57.0258 78.723 55.5508 85.6417 52.685C92.5604 49.8192 98.8469 45.6187 104.142 40.3234C109.438 35.028 113.638 28.7415 116.504 21.8228C119.37 14.9042 120.845 7.48874 120.845 0H127.638C127.619 16.9199 120.889 33.1414 108.924 45.1056C96.9603 57.0698 80.7388 63.7997 63.8189 63.8189Z" fill="#3A375C"/>
</g>
<g id="row1">
<path id="Vector_13" d="M210.819 21.9094H190.819V41.9094H210.819V21.9094Z" fill="#737C8E"/>
<path id="Vector_14" d="M406.819 30.9094H245.819V32.9094H406.819V30.9094Z" fill="#737C8E"/>
</g>
<g id="row2">
<path id="Vector_15" d="M210.819 172.458H190.819V192.458H210.819V172.458Z" fill="#737C8E"/>
<path id="Vector_16" d="M406.819 181.458H245.819V183.458H406.819V181.458Z" fill="#737C8E"/>
</g>
<g id="row3">
<path id="Vector_17" d="M210.819 321.959H190.819V341.959H210.819V321.959Z" fill="#737C8E"/>
<path id="Vector_18" d="M406.819 330.959H245.819V332.959H406.819V330.959Z" fill="#737C8E"/>
</g>
<path id="floor" d="M645.091 518.945C712.672 518.945 767.457 514.821 767.457 509.733C767.457 504.646 712.672 500.521 645.091 500.521C577.51 500.521 522.724 504.646 522.724 509.733C522.724 514.821 577.51 518.945 645.091 518.945Z" fill="#E6E6E6"/>
<g id="woman">
<path id="Vector_19" d="M632.324 137.344L606.776 157.482L552.641 138.456C552.641 138.456 534.235 117.752 523.826 133.173C520.261 138.454 543.61 148.21 545.813 149.117C551.319 151.384 604.071 180.324 609.24 176.527C614.409 172.731 643.494 153.527 643.494 153.527L632.324 137.344Z" fill="#A0616A"/>
<path id="Vector_20" d="M719.534 102.993C695.321 93.9451 672.287 89.6643 653.612 102.993V59.9759C653.612 55.6474 654.465 51.3613 656.121 47.3623C657.778 43.3633 660.206 39.7297 663.266 36.6689C666.327 33.6082 669.961 31.1804 673.96 29.5239C677.959 27.8675 682.245 27.0149 686.573 27.0149H686.573C690.902 27.0149 695.188 27.8675 699.187 29.5239C703.186 31.1804 706.82 33.6083 709.88 36.669C712.941 39.7297 715.369 43.3633 717.025 47.3623C718.682 51.3613 719.534 55.6474 719.534 59.976L719.534 102.993Z" fill="#2F2E41"/>
<path id="Vector_21" d="M658.693 196.964L656.714 210.814C656.714 210.814 651.768 225.654 656.714 253.354L577.077 470.503L635.939 487.321L665.123 368.606L706.179 278.086L702.222 380.972L681.447 490.783L742.783 488.31L760.656 300.017C763.546 270.259 758.384 240.271 745.711 213.192C740.753 202.662 735.421 194.363 730.584 193.158C716.072 189.544 658.693 196.964 658.693 196.964Z" fill="#2F2E41"/>
<path id="Vector_22" d="M584.496 469.019L564.216 490.784C564.216 490.784 525.139 511.064 552.839 513.537C580.539 516.01 589.937 505.128 589.937 505.128C589.937 505.128 624.562 502.655 624.068 497.709C623.573 492.762 621.1 476.439 621.1 476.439L584.496 469.019Z" fill="#2F2E41"/>
<path id="Vector_23" d="M694.555 474.267V489.601C694.555 489.601 695.049 496.031 694.555 497.515C694.06 498.999 686.64 517.301 711.373 513.344C736.105 509.387 726.212 494.053 726.212 494.053L720.276 471.794L694.555 474.267Z" fill="#2F2E41"/>
<path id="Vector_24" d="M686.27 90.1208C699.997 90.1208 711.125 78.9924 711.125 65.2649C711.125 51.5373 699.997 40.4089 686.27 40.4089C672.542 40.4089 661.414 51.5373 661.414 65.2649C661.414 78.9924 672.542 90.1208 686.27 90.1208Z" fill="#A0616A"/>
<path id="Vector_25" d="M703.458 78.9914C703.458 78.9914 699.996 111.638 703.458 117.574C706.921 123.509 668.339 111.638 668.339 111.638C668.339 111.638 676.748 89.3789 673.78 80.4753C670.812 71.5716 703.458 78.9914 703.458 78.9914Z" fill="#A0616A"/>
<path id="Vector_26" d="M723.244 172.974L731.159 194.738L657.456 203.147C657.456 203.147 649.542 201.663 649.542 195.233C649.542 188.803 641.133 166.049 641.133 166.049C641.133 166.049 620.538 149.357 610.646 144.905C607.059 143.292 612.424 143.958 615.441 137.112C616.346 135.054 617.43 132.883 618.612 130.682C619.576 128.876 620.615 127.046 621.679 125.241C622.97 123.04 624.3 120.873 625.591 118.81C629.499 112.573 633.065 107.33 634.208 105.208C637.671 98.7772 670.223 98.2034 670.223 98.2034C679.532 104.06 706.426 105.208 706.426 105.208C706.426 105.208 724.926 112.949 732.633 118.81C733.192 119.231 723.244 172.974 723.244 172.974Z" fill="#E6E6E6"/>
<path id="Vector_27" d="M707.244 35.4263V34.836L706.542 34.875C702.557 31.8404 697.933 29.7531 693.021 28.7716C688.11 27.79 683.039 27.94 678.193 29.2102C682.838 30.4376 687.157 32.669 690.845 35.7471L667.02 37.0707L656.964 59.4171H663.77L669.255 49.3612V59.4171H692.272L693.836 51.5959L698.181 59.4171H702.703C702.731 59.9748 702.775 60.5285 702.775 61.0931L698.305 104.11L719.534 95.1715V61.0931C719.538 56.1676 718.436 51.3041 716.309 46.8617C714.181 42.4192 711.084 38.5113 707.244 35.4263V35.4263Z" fill="#2F2E41"/>
<path id="Vector_28" d="M740.557 149.231L739.073 188.308L735.116 263.989C735.116 263.989 740.557 296.635 726.707 296.141C712.857 295.646 723.244 257.558 723.244 257.558L719.287 197.706L723.244 155.661L740.557 149.231Z" fill="#A0616A"/>
<path id="Vector_29" d="M744.514 170.501C744.514 174.953 719.534 173.716 719.534 173.716L706.426 105.208C706.426 105.208 724.926 112.949 732.633 118.81C734.446 120.692 735.93 122.866 737.02 125.241C737.609 126.828 738.168 128.669 738.697 130.682C739.221 132.68 739.711 134.852 740.171 137.112C742.33 148.138 743.78 159.29 744.514 170.501V170.501Z" fill="#E6E6E6"/>
</g>
<g id="meat">
<path id="Vector_30" d="M63.1462 329.424L25.2841 325.503C25.5751 323.493 25.3517 321.441 24.6349 319.541C23.9181 317.64 22.7312 315.952 21.1852 314.634C19.6391 313.316 17.7843 312.412 15.794 312.005C13.8036 311.599 11.7427 311.703 9.80371 312.309C7.8647 312.915 6.11085 314.002 4.70598 315.469C3.30111 316.937 2.29106 318.736 1.77016 320.7C1.24926 322.663 1.23451 324.727 1.72728 326.698C2.22005 328.668 3.20426 330.482 4.588 331.969C3.1821 333.488 2.19185 335.344 1.71303 337.357C1.23421 339.37 1.28302 341.473 1.85475 343.462C2.42648 345.45 3.50177 347.258 4.97662 348.71C6.45148 350.161 8.27599 351.208 10.2737 351.748C12.2713 352.288 14.3746 352.303 16.38 351.793C18.3854 351.282 20.225 350.262 21.721 348.833C23.217 347.403 24.3187 345.611 24.9196 343.631C25.5205 341.651 25.6001 339.549 25.1509 337.529L63.1462 334.036V329.424Z" fill="#CCCCCC"/>
<path id="Vector_31" d="M101.648 355.446C116.532 359.106 131.527 348.549 132.303 333.241C132.324 332.816 132.335 332.389 132.335 331.959C132.335 331.529 132.324 331.102 132.303 330.678C131.527 315.37 116.532 304.812 101.648 308.472L51.1535 320.889C49.6989 320.888 48.2582 321.173 46.9139 321.729C45.5696 322.284 44.348 323.1 43.3189 324.128C42.2898 325.156 41.4734 326.377 40.9164 327.72C40.3595 329.064 40.0728 330.505 40.0728 331.959C40.0728 333.414 40.3595 334.854 40.9164 336.198C41.4734 337.542 42.2898 338.763 43.3189 339.791C44.348 340.819 45.5696 341.634 46.9139 342.19C48.2582 342.746 49.6989 343.031 51.1535 343.029L101.648 355.446Z" fill="#C0C7D6"/>
</g>
</g>
<defs>
<clipPath id="clip0_2_54">
<rect width="767.457" height="518.945" fill="white"/>
</clipPath>
</defs>
</svg>
